PathFileType	4	(X/Y/Z)	\\move.snu.ac.kr\motion\Animal\091204_091205_Bird\091205_bird\Project 2\Capture day 2\Session 1\pigeon_016_14markers.trc
DataRate	CameraRate	NumFrames	NumMarkers	Units	OrigDataRate	OrigDataStartFrame	OrigNumFrames
240.0	240.0	12	14	mm	240.0	279	2171
Frame#	Time	20MarkersBird:Head			20MarkersBird:C_back			20MarkersBird:L-back			20MarkersBird:R-back			20MarkersBird:Spine			20MarkersBird:L-shoulder			20MarkersBird:L-elbow			20MarkersBird:L-wrist			20MarkersBird:L-hand			20MarkersBird:L-wing1			20MarkersBird:L-wing10			20MarkersBird:R-shoulder			20MarkersBird:R-elbow			20MarkersBird:R-Wrist			20MarkersBird:R-hand			20MarkersBird:R-wing1			20MarkersBird:R-wing10			20MarkersBird:C_Tail			20MarkersBird:L-Tale			20MarkersBird:R-Tale			
		X1	Y1	Z1	X2	Y2	Z2	X3	Y3	Z3	X4	Y4	Z4	X5	Y5	Z5	X6	Y6	Z6	X7	Y7	Z7	X8	Y8	Z8	X9	Y9	Z9	X10	Y10	Z10	X11	Y11	Z11	X12	Y12	Z12	X13	Y13	Z13	X14	Y14	Z14	X15	Y15	Z15	X16	Y16	Z16	X17	Y17	Z17	X18	Y18	Z18	X19	Y19	Z19	X20	Y20	Z20	

1339	5.575	-832.45325	923.66528	-1849.15356	-847.71045	931.32446	-1793.38660							-855.56323	931.07837	-1739.60046	-858.67651	924.14392	-1823.01160	-857.26422	951.57062	-1784.64417	-887.33051	970.53015	-1820.17224	-907.73962	981.50360	-1796.32227							-823.17212	926.17670	-1816.51611	-832.21265	950.67590	-1789.71338	-797.25043	970.97729	-1807.63354	-776.43268	981.18774	-1771.29846							-879.90997	866.62665	-1633.10986	-951.46576	904.42047	-1706.98535	-771.26770	919.62994	-1669.40552	
1340	5.579	-827.14111	919.04028	-1868.10229	-841.35345	927.45770	-1813.82556							-850.39539	925.95282	-1758.34460	-854.07080	919.50702	-1842.43042	-852.34912	948.04895	-1804.23901	-883.69128	970.35223	-1838.18347	-895.60345	990.44116	-1815.88306							-817.70496	921.27325	-1835.56274	-829.99561	946.19379	-1808.23926	-793.24103	971.90814	-1825.46777	-779.83972	994.73749	-1791.30591							-878.75885	865.94910	-1650.96997	-947.30945	903.85077	-1729.70227	-763.69147	918.33344	-1692.07153	
1341	5.583	-822.00653	914.58881	-1886.98230	-836.14581	922.62384	-1831.99255							-845.28485	920.72900	-1776.95215	-849.42371	914.65576	-1861.52783	-848.53461	943.46912	-1827.03101	-881.33759	968.80658	-1856.68091	-886.61536	994.12170	-1838.18640							-811.65112	916.39990	-1854.57898	-825.39099	942.11224	-1829.50195	-786.21387	971.14185	-1842.87561	-780.28735	1003.58514	-1815.15881							-877.02533	866.62274	-1668.08667	-942.71906	902.21552	-1751.67810	-756.71838	913.18073	-1713.49902	
1342	5.588	-816.74561	909.97375	-1905.74170	-830.61920	918.61346	-1850.38586							-840.22076	915.49298	-1795.45801	-844.95941	909.72778	-1879.57727	-846.20978	938.53156	-1849.51611	-880.36938	964.10474	-1875.02893	-884.38220	992.03107	-1862.46509							-804.95239	911.08868	-1873.06128	-818.78723	938.55920	-1851.90308	-777.73517	967.34943	-1860.61206	-770.70465	1004.79907	-1840.00574							-873.68524	866.52356	-1685.42078	-937.53156	899.74170	-1772.34302	-749.87921	904.89703	-1733.59143	
1343	5.592	-811.76538	905.64417	-1924.45129	-826.09772	914.06171	-1868.19421							-835.19226	910.33063	-1813.89697	-840.44989	905.61383	-1898.22107	-845.20197	933.30817	-1870.74988	-880.59808	956.64850	-1894.49951	-888.04181	985.46313	-1886.57910							-798.83313	906.65619	-1891.02637	-810.48871	934.92603	-1873.58496	-767.33661	960.50873	-1878.50354	-755.20587	998.83026	-1862.93347							-868.77313	864.89233	-1703.28699	-932.05121	896.88867	-1792.07776	-744.00183	896.48944	-1752.88171	
1344	5.596	-806.62042	901.50604	-1942.96826	-821.12604	910.25122	-1886.07056							-830.18842	905.32800	-1832.30359	-835.43146	901.95190	-1916.69666	-845.78284	927.75159	-1890.10449	-882.41833	947.09131	-1915.25134	-896.77899	974.33984	-1909.52563							-793.39240	902.59167	-1909.75085	-800.79999	930.60449	-1892.68994	-755.19611	951.43713	-1897.13684	-736.77313	987.65363	-1884.94873							-863.18903	860.24908	-1721.69128	-926.27393	892.70166	-1810.40210	-738.86951	888.29596	-1771.09595	
1345	5.600	-801.80316	897.69562	-1961.65967	-816.65503	905.89325	-1903.80994							-825.19843	900.57086	-1850.71289	-830.04706	898.33618	-1935.00403	-847.86127	922.13245	-1911.13428	-884.80164	934.16205	-1936.83887	-904.15619	958.88458	-1933.77295							-787.99677	898.61768	-1928.89612	-789.52332	925.41223	-1908.58228	-742.33612	940.56378	-1916.99963	-717.21375	972.14502	-1907.22095							-856.45203	853.49060	-1740.22607	-921.05817	887.02734	-1827.62207	-733.93512	879.25189	-1789.11975	
1346	5.604	-796.84625	894.40125	-1980.68384	-812.10455	901.94110	-1921.68542							-820.21143	896.14532	-1869.15955	-825.01288	895.05200	-1953.50415	-849.36719	914.07562	-1931.86609	-885.61401	919.37885	-1959.18188	-909.37268	939.32532	-1959.40674							-782.29712	894.13013	-1948.01440	-778.11194	920.58502	-1925.90466	-730.14948	925.89374	-1937.18054	-698.67139	952.04449	-1930.78918							-848.99182	845.24774	-1759.38831	-915.80493	880.71558	-1843.93970	-729.03162	870.01434	-1807.32666	
1347	5.608	-792.26483	891.73657	-1999.75146	-807.82062	898.69702	-1940.22278							-815.21655	892.13727	-1887.67810	-820.11292	891.93353	-1972.26526	-849.85950	905.01996	-1953.25391	-883.95520	902.73499	-1982.32190	-911.06567	916.88721	-1986.32751							-777.11151	890.19855	-1967.48975	-767.04224	912.32391	-1943.17456	-720.65588	910.24280	-1959.49915	-683.49176	927.97144	-1956.53125							-841.65674	837.23712	-1778.94897	-910.18097	874.21613	-1860.20959	-724.12885	861.82886	-1825.88953	
1348	5.613	-787.35004	889.19946	-2018.94873	-803.52942	895.61530	-1958.93201							-810.20294	888.63263	-1906.30371	-815.39178	889.11218	-1991.42578	-848.04187	896.30212	-1974.93982	-878.54486	885.75531	-2005.80249	-907.51239	892.98395	-2013.71411							-772.38000	886.74622	-1986.64709	-754.98383	902.51917	-1962.76001	-714.16199	894.02106	-1983.00830	-674.18866	901.55603	-1983.89661							-834.43500	829.07330	-1798.96265	-905.00720	867.71954	-1876.57483	-719.45221	854.88123	-1844.83899	
1349	5.617	-782.83459	886.99164	-2038.28748	-799.19885	893.13971	-1977.89063							-805.15967	885.71741	-1925.07080	-810.79065	886.35992	-2010.36572	-844.95209	886.88947	-1996.54285	-869.69568	869.77655	-2029.08606	-898.03571	869.94958	-2040.43457							-767.86206	884.58112	-2006.12561	-745.87634	893.74213	-1984.30969	-711.23926	877.96814	-2007.44604	-671.01532	875.88977	-2012.97668							-827.06146	822.48938	-1819.28308	-899.39618	860.89899	-1893.03247	-715.09991	850.13745	-1863.78088	
1350	5.621	-778.30402	885.00012	-2057.74683	-794.49847	890.96295	-1997.07288							-800.09961	883.30634	-1943.94067	-806.13574	883.82678	-2029.15747	-840.11908	878.88031	-2017.62537	-858.27557	856.40723	-2051.37012	-883.89551	849.10992	-2065.70898							-763.09955	882.53217	-2025.22693	-739.51019	884.78076	-2006.83252	-711.77747	863.65814	-2032.04272	-673.77954	852.45703	-2042.13342							-819.76959	816.22046	-1839.93347	-893.44702	854.42908	-1909.54980	-710.48572	847.10699	-1882.71045	
